<?xml version="1.0" encoding="iso-8859-1"?>
<!-- Uploaded to: SVG Repo, www.svgrepo.com, Generator: SVG Repo Mixer Tools -->
<!DOCTYPE svg PUBLIC "-//W3C//DTD SVG 1.1//EN" "http://www.w3.org/Graphics/SVG/1.1/DTD/svg11.dtd">
<svg fill="#fff" height="800px" width="800px" version="1.1" id="Capa_1" xmlns="http://www.w3.org/2000/svg" xmlns:xlink="http://www.w3.org/1999/xlink" 
	 viewBox="0 0 401.847 401.847" xml:space="preserve">
<path d="M366.372,242.571c-19.561,0-35.475,15.914-35.475,35.474c0,2.485,2.015,4.5,4.5,4.5c2.485,0,4.5-2.015,4.5-4.5
	c0-14.598,11.876-26.474,26.475-26.474c14.598,0,26.475,11.876,26.475,26.474c0,14.599-11.876,26.475-26.475,26.475h-50.878
	l-21.978-40.848c6.814-4.458,11.329-12.152,11.329-20.886c0-27.795,7.266-60.238,12.177-73.413
	c7.941-21.306,19.52-29.095,32.927-38.113c3.954-2.66,8.042-5.41,12.133-8.594c6.829-5.314,10.441-10.408,11.043-15.573
	c0.435-3.728-0.696-7.299-3.362-10.614c-5.419-6.738-13.873-8.152-20.01-8.152c-3.352,0-5.732,0.426-6.044,0.485
	c-40.392,8.028-56.909,25.665-79.77,50.076c-11.304,12.07-24.116,25.751-42.422,41.359c-17.359,14.799-33.163,22.304-46.973,22.306
	c-0.001,0-0.002,0-0.004,0c-28.143,0-39.599-31.436-42.439-41.072c-8.291-28.124-33.816-37.794-56.335-46.327l-0.123-0.047
	c-6.173-2.339-11.782-3.525-16.672-3.525c-12.596,0-17.877,7.664-18.573,14.227c-0.94,8.872,5.214,17.034,14.315,18.983
	c25.196,5.4,31.449,22.536,32.217,24.975l7.968,73.275c0.087,8.642,4.595,16.241,11.361,20.652L84.291,304.52H24.638
	C16.015,304.52,9,297.506,9,288.884c0-8.623,7.015-15.637,15.638-15.637c2.485,0,4.5-2.015,4.5-4.5c0-2.485-2.015-4.5-4.5-4.5
	C11.053,264.246,0,275.299,0,288.884c0,13.585,11.053,24.637,24.638,24.637h341.734c19.561,0,35.475-15.914,35.475-35.475
	C401.847,258.485,385.933,242.571,366.372,242.571z M102.175,226.727l-6.342-58.329c-0.024-0.224-0.065-0.445-0.123-0.662
	c-0.267-1.011-6.906-24.841-39.113-31.744c-5.037-1.079-7.642-5.543-7.25-9.235c0.416-3.925,3.923-6.175,9.623-6.175
	c3.796,0,8.333,0.989,13.483,2.941l0.123,0.047c21.565,8.171,43.864,16.62,50.892,40.456c8.774,29.761,27.866,47.527,51.073,47.527
	c0.001,0,0.003,0,0.005,0c16.01-0.002,33.778-8.23,52.811-24.457c18.691-15.936,31.687-29.812,43.153-42.056
	c22.521-24.049,37.4-39.936,74.89-47.389c0.018-0.003,1.827-0.324,4.354-0.324c4.17,0,9.811,0.832,12.997,4.792
	c1.483,1.845,1.53,3.127,1.436,3.932c-0.209,1.794-1.703,4.899-7.631,9.513c-3.846,2.993-7.803,5.654-11.629,8.229
	c-13.463,9.057-27.385,18.422-36.337,42.438c-4.337,11.636-10.122,35.997-12.069,60.497H102.175z M103.895,242.787
	c0-0.163-0.009-0.325-0.026-0.486l-0.715-6.574h192.834c-0.09,2.37-0.143,4.728-0.143,7.06c0,8.792-7.152,15.945-15.943,15.945
	H119.838C111.047,258.732,103.895,251.579,103.895,242.787z M94.512,304.52l20.094-37.346c1.688,0.362,3.438,0.557,5.233,0.557
	h160.063c1.809,0,3.572-0.199,5.273-0.566l20.099,37.355H94.512z"/>
</svg>